#!OML:ASF H:\GeneralSubjects\Female5\Project 1\Capture day 1\Session 1\Female5.ASF
:FULLY-SPECIFIED
:DEGREES
128
root 9.40749 15.3219 -0.690621 85.142 -81.7702 -78.5625
lowerback 4.51959 1.3785 5.10604
upperback -10.2079 2.54967 4.55598
thorax -13.7185 0.817539 1.80691
lowerneck -20.4378 -1.56866 -3.31859
upperneck 25.8403 -0.569736 -2.76438
head 11.8976 -1.07811 -0.591995
rclavicle 2.3556e-014 -6.36111e-015
rhumerus -50.4199 48.5669 -101.224
rradius 42.4908
rwrist -10.4375
rhand -19.7187 -25.467
rfingers 7.12502
rthumb 6.61142 -55.3438
lclavicle 2.3556e-014 -6.36111e-015
lhumerus -39.6586 16.3736 76.0305
lradius 19.893
lwrist -19.6554
lhand -21.1032 38.21
lfingers 7.12502
lthumb 5.27469 68.1244
rfemur 8.29903 -1.30677 37.8906
rtibia 23.0048
rfoot -15.208 -9.05281
rtoes -20.2759
lfemur -33.7033 -11.6713 -18.4048
ltibia 27.4772
lfoot -10.5319 10.8164
ltoes -64.2588
129
root 9.09694 15.341 -0.635364 79.7396 -82.4615 -73.8854
lowerback 4.89432 1.19981 4.47478
upperback -10.1632 2.26804 4.42323
thorax -13.9138 0.747427 2.05051
lowerneck -19.938 -1.71252 -3.65002
upperneck 25.8062 -0.864471 -2.19963
head 11.7888 -1.16706 -0.36707
rclavicle 7.15625e-015 6.2816e-014
rhumerus -51.7584 50.3138 -102.658
rradius 44.6384
rwrist -10.1539
rhand -18.2468 -24.5113
rfingers 7.12502
rthumb 8.03219 -54.3386
lclavicle 7.15625e-015 6.2816e-014
lhumerus -38.2279 12.1667 79.7149
lradius 20.6449
lwrist -16.7001
lhand -20.7668 36.3137
lfingers 7.12502
lthumb 5.59947 66.2197
rfemur 6.73339 -4.334 35.5185
rtibia 28.7643
rfoot -10.1957 -9.96672
rtoes -12.6909
lfemur -31.006 -12.2028 -20.2695
ltibia 26.8057
lfoot -11.3577 9.92527
ltoes -63.911
130
root 8.79474 15.3633 -0.576094 73.1001 -83.1248 -67.9262
lowerback 5.2672 1.00004 3.91741
upperback -10.1333 1.95507 4.24625
thorax -14.1178 0.652193 2.21346
lowerneck -19.2796 -1.79494 -3.9562
upperneck 25.6421 -1.09033 -1.6424
head 11.6009 -1.22226 -0.13579
rclavicle 1.27222e-014 -1.59028e-015
rhumerus -53.1802 52.3954 -104.347
rradius 46.9628
rwrist -9.92807
rhand -17.0384 -24.8987
rfingers 7.12502
rthumb 9.19824 -54.678
lclavicle 1.27222e-014 -1.59028e-015
lhumerus -37.0132 7.33223 83.4086
lradius 21.9875
lwrist -14.4181
lhand -20.2696 35.6319
lfingers 7.12502
lthumb 6.07957 65.5247
rfemur 4.83467 -6.86359 33.3011
rtibia 34.6835
rfoot -5.31612 -12.2408
rtoes -11.7192
lfemur -28.0562 -12.7509 -22.1766
ltibia 25.5414
lfoot -11.8817 9.56496
ltoes -64.0335
131
root 8.50548 15.3886 -0.516602 64.9091 -84.0848 -60.2763
lowerback 5.62864 0.853989 2.99816
upperback -10.118 1.6559 3.97739
thorax -14.3341 0.598599 2.47762
lowerneck -18.8298 -1.8467 -3.82937
upperneck 25.7345 -1.31173 -1.40441
head 11.5483 -1.28363 -0.1003
rclavicle 7.95139e-015 -1.11319e-014
rhumerus -54.4179 54.6318 -105.91
rradius 49.4631
rwrist -9.7311
rhand -16.862 -23.5293
rfingers 7.12502
rthumb 9.36846 -53.3011
lclavicle 7.95139e-015 -1.11319e-014
lhumerus -35.99 1.70654 87.1486
lradius 23.8959
lwrist -12.4162
lhand -19.6563 35.641
lfingers 7.12502
lthumb 6.67163 65.5159
rfemur 2.57112 -8.83397 30.9446
rtibia 40.3713
rfoot -1.21077 -14.6119
rtoes -11.5154
lfemur -25.2389 -13.1185 -24.4333
ltibia 24.2205
lfoot -12.3526 9.30471
ltoes -64.0328
132
root 8.23245 15.4181 -0.462699 53.9724 -85.0716 -49.6627
lowerback 5.88225 0.758855 1.81453
upperback -10.1193 1.37509 3.7073
thorax -14.5055 0.583487 2.88943
lowerneck -18.5319 -1.96568 -3.90457
upperneck 25.8051 -1.57022 -1.10496
head 11.5219 -1.37273 -0.0148989
rclavicle 1.88845e-014 -2.38542e-015
rhumerus -55.0111 56.7794 -106.805
rradius 52.2101
rwrist -9.55549
rhand -17.6882 -20.0088
rfingers 7.12502
rthumb 8.5712 -49.8148
lclavicle 1.88845e-014 -2.38542e-015
lhumerus -35.3034 -4.52389 90.7791
lradius 26.4828
lwrist -9.88257
lhand -18.5715 36.1031
lfingers 7.12502
lthumb 7.71876 65.9422
rfemur -0.135247 -10.3502 28.7856
rtibia 45.6271
rfoot 1.72841 -17.2594
rtoes -8.07122
lfemur -22.9668 -13.3306 -26.7017
ltibia 23.3431
lfoot -12.8849 8.82406
ltoes -63.963
133
root 7.97145 15.4475 -0.422723 42.6041 -85.6878 -38.5128
lowerback 6.05344 0.664881 0.832051
upperback -10.1314 1.11488 3.52348
thorax -14.6336 0.56119 3.28467
lowerneck -18.1036 -1.99716 -4.20264
upperneck 25.5704 -1.74273 -0.421706
head 11.3586 -1.38736 0.266927
rclavicle -1.19271e-014 -1.82882e-014
rhumerus -55.0088 59.0662 -107.317
rradius 55.0828
rwrist -9.61706
rhand -13.819 -22.3797
rfingers 7.12502
rthumb 12.3037 -51.9978
lclavicle -1.19271e-014 -1.82882e-014
lhumerus -34.7783 -10.0691 93.5632
lradius 29.5288
lwrist -7.56597
lhand -18.9822 36.5748
lfingers 7.12502
lthumb 7.32234 66.4281
rfemur -3.10456 -11.2292 27.4967
rtibia 50.0959
rfoot -1.49169 -19.6461
rtoes -19.91
lfemur -21.0869 -13.3277 -28.4564
ltibia 22.7637
lfoot -13.3989 8.42928
ltoes -64.3208
134
root 7.71863 15.4777 -0.394446 30.9081 -86.0924 -26.9575
lowerback 6.14107 0.57118 -0.0238664
upperback -10.1382 0.865045 3.36521
thorax -14.6968 0.530781 3.63647
lowerneck -17.6229 -1.86453 -4.21412
upperneck 25.13 -1.69678 0.0256742
head 11.099 -1.3018 0.446809
rclavicle -2.78299e-015 -3.18055e-015
rhumerus -54.3707 61.3421 -107.354
rradius 58.0335
rwrist -9.71013
rhand -11.3225 -22.6755
rfingers 7.12502
rthumb 14.7098 -52.1336
lclavicle -2.78299e-015 -3.18055e-015
lhumerus -34.3064 -14.9322 95.5933
lradius 33.1152
lwrist -5.21537
lhand -18.2894 36.0679
lfingers 7.12502
lthumb 7.99106 65.8969
rfemur -6.19498 -11.4622 26.8187
rtibia 53.6714
rfoot -4.28692 -22.278
rtoes -7.49159
lfemur -19.3464 -13.2258 -29.9111
ltibia 22.1778
lfoot -14.142 8.09886
ltoes -64.4827
135
root 7.47435 15.5114 -0.371234 20.2214 -86.3747 -16.2409
lowerback 6.12505 0.519092 -0.736786
upperback -10.2004 0.686164 3.24215
thorax -14.7615 0.518855 3.93621
lowerneck -17.197 -1.90547 -4.16343
upperneck 24.994 -1.86131 0.247079
head 10.9692 -1.34508 0.498609
rclavicle 9.74045e-015 -2.54444e-014
rhumerus -52.818 63.2634 -106.455
rradius 61.1026
rwrist -9.78169
rhand -10.3172 -21.9842
rfingers 7.12502
rthumb 15.6782 -51.369
lclavicle 9.74045e-015 -2.54444e-014
lhumerus -33.8931 -19.3371 97.0732
lradius 37.1041
lwrist -3.00083
lhand -17.2617 34.8239
lfingers 7.12502
lthumb 8.98278 64.6127
rfemur -9.47102 -10.8552 26.4963
rtibia 55.3915
rfoot -5.61511 -24.2621
rtoes -5.19641
lfemur -17.8286 -12.9732 -31.0916
ltibia 21.5444
lfoot -14.8323 7.8431
ltoes -64.7144
136
root 7.22703 15.541 -0.346281 11.7343 -86.4636 -7.72175
lowerback 6.0289 0.453533 -1.15636
upperback -10.2515 0.529994 3.16542
thorax -14.756 0.48623 4.11663
lowerneck -16.8335 -1.87725 -4.0581
upperneck 24.8519 -1.92071 0.413082
head 10.8461 -1.34206 0.535918
rclavicle 9.93923e-016 2.70347e-014
rhumerus -50.1949 65.104 -104.539
rradius 64.1355
rwrist -10.1218
rhand -10.0773 -21.3941
rfingers 7.12502
rthumb 15.9092 -50.7607
lclavicle 9.93923e-016 2.70347e-014
lhumerus -33.1873 -23.1184 97.997
lradius 40.927
lwrist -0.921764
lhand -16.8935 33.8656
lfingers 7.12502
lthumb 9.33814 63.6387
rfemur -12.6172 -10.2211 26.3554
rtibia 56.4289
rfoot -10.335 -22.4707
rtoes -5.27537
lfemur -16.2258 -12.798 -32.0881
ltibia 20.7312
lfoot -15.1631 7.95906
ltoes -65.4027
137
root 6.98096 15.5662 -0.323855 6.85965 -86.3765 -2.86396
lowerback 5.95052 0.349744 -1.28019
upperback -10.2616 0.367532 3.1368
thorax -14.7052 0.420077 4.18333
lowerneck -16.6083 -1.86577 -4.01216
upperneck 24.8087 -1.98961 0.616143
head 10.7887 -1.34589 0.593431
rclavicle 9.93923e-016 5.56597e-015
rhumerus -45.7238 66.5091 -100.886
rradius 67.2091
rwrist -11.2484
rhand -8.36886 -20.693
rfingers 7.12502
rthumb 17.5539 -49.9205
lclavicle 9.93923e-016 5.56597e-015
lhumerus -32.0342 -26.3532 98.3407
lradius 44.6606
lwrist 1.15698
lhand -17.8593 31.9935
lfingers 7.12502
lthumb 8.40612 61.8062
rfemur -15.6709 -9.51627 26.4613
rtibia 56.5976
rfoot -14.0082 -20.1865
rtoes -7.1704
lfemur -14.5729 -12.9834 -32.8317
ltibia 19.9025
lfoot -15.5353 8.15097
ltoes -65.5692
138
root 6.75388 15.5939 -0.313467 8.88657 -86.3511 -4.86251
lowerback 6.05224 0.275046 -1.04202
upperback -10.3293 0.301019 3.2044
thorax -14.8447 0.368632 4.14245
lowerneck -16.369 -1.85808 -4.19632
upperneck 24.7995 -2.07308 1.08539
head 10.7475 -1.34677 0.783211
rclavicle 1.25234e-014 -1.35174e-014
rhumerus -39.9032 67.1675 -95.9847
rradius 70.2391
rwrist -12.384
rhand -6.12363 -19.7179
rfingers 7.12502
rthumb 19.7135 -48.7383
lclavicle 1.25234e-014 -1.35174e-014
lhumerus -30.5497 -29.1116 98.1378
lradius 48.4799
lwrist 2.9521
lhand -18.3702 30.7875
lfingers 7.12502
lthumb 7.91305 60.6194
rfemur -18.9209 -8.30417 27.1785
rtibia 55.9769
rfoot -16.2656 -18.4515
rtoes -9.75125
lfemur -13.2421 -13.2761 -32.9073
ltibia 19.2633
lfoot -16.0221 8.12987
ltoes -65.008
